<?xml version="1.0" encoding="UTF-8" standalone="no"?>
<!-- Uploaded to: SVG Repo, www.svgrepo.com, Transformed by: SVG Repo Mixer Tools -->

<svg
   height="800"
   width="800"
   version="1.1"
   id="Capa_1"
   viewBox="0 0 511.737 511.737"
   xml:space="preserve"
   fill="#000000"
   xmlns="http://www.w3.org/2000/svg"
   xmlns:svg="http://www.w3.org/2000/svg"><defs
   id="defs17" />





<g
   id="SVGRepo_iconCarrier"> <g
   id="g17"> <g
   id="g1"> <path
   style="fill:#74d24f"
   d="m 255.868,39.868 c -138.961,0 -251.351,108.738 -255.859,247.558 -0.141,4.316 1.453,8.414 4.484,11.539 3.016,3.113 7.234,4.902 11.562,4.902 h 63.82 c 4.422,0 8,-3.582 8,-8 h 336 c 0,4.418 3.578,8 8,8 h 63.812 c 4.336,0 8.555,-1.789 11.57,-4.91 3.023,-3.129 4.617,-7.23 4.469,-11.539 C 507.227,148.607 394.837,39.868 255.868,39.868 Z"
   id="path1" /> </g> <g
   id="g2"> <path
   style="fill:#ffd200"
   d="m 255.868,39.868 c -0.042,0 -0.083,0.003 -0.125,0.003 V 295.868 L 384.496,74.128 C 346.74,52.325 302.834,39.868 255.868,39.868 Z"
   id="path2" /> </g> <g
   id="g3"> <path
   style="fill:#ff4f19"
   d="m 431.876,303.868 h 63.812 c 4.336,0 8.555,-1.789 11.57,-4.91 3.023,-3.129 4.617,-7.23 4.469,-11.539 C 508.748,195.524 458.461,116.845 384.506,74.133 L 255.871,295.868 h 168.004 c 10e-4,4.418 3.579,8 8.001,8 z"
   id="path3" /> </g> <g
   id="g4"> <path
   style="fill:#ff9600"
   d="M 384.506,74.133 255.871,295.868 477.916,167.961 C 455.557,128.984 423.347,96.565 384.506,74.133 Z"
   id="path4" /> </g> <g
   id="g5"> <path
   style="fill:#8b8996"
   d="m 255.868,111.868 c -101.461,0 -184,82.543 -184,184 0,58.359 28.125,113.848 75.242,148.43 1.375,1.008 3.031,1.551 4.734,1.551 l 208.023,0.02 c 1.703,0 3.359,-0.543 4.734,-1.551 47.125,-34.57 75.266,-90.062 75.266,-148.449 10e-4,-101.458 -82.538,-184.001 -183.999,-184.001 z"
   id="path5" /> </g> <g
   id="g6"> <path
   style="fill:#ffffff"
   d="m 413.524,138.212 c -2.828,-2.836 -7.328,-3.129 -10.516,-0.699 l -144,110.117 c -1.836,1.402 -2.969,3.523 -3.125,5.824 -0.148,2.301 0.695,4.559 2.328,6.188 l 33.883,33.883 c 1.508,1.504 3.539,2.344 5.656,2.344 0.172,0 0.352,-0.004 0.531,-0.02 2.297,-0.152 4.422,-1.289 5.82,-3.121 l 110.117,-144 c 2.439,-3.184 2.142,-7.68 -0.694,-10.516 z"
   id="path6" /> </g> <g
   id="g7"> <path
   style="fill:#ffffff"
   d="m 357.871,463.868 h -204 c -1.105,0 -2,-0.895 -2,-2 v -60 c 0,-1.105 0.895,-2 2,-2 h 204 c 1.105,0 2,0.895 2,2 v 60 c 0,1.105 -0.895,2 -2,2 z"
   id="path7" /> </g>  <g
   id="g9"> <circle
   style="fill:#5c546a"
   cx="255.871"
   cy="295.86801"
   r="48"
   id="circle8" /> </g> <g
   id="g10"> <circle
   style="fill:#b9bbc1"
   cx="255.871"
   cy="295.86801"
   r="24"
   id="circle9" /> </g> <g
   id="g16"> <g
   id="g11"> <path
   style="fill:#5c546a"
   d="m 143.876,109.88 c 1.359,0 2.734,-0.344 3.992,-1.07 3.828,-2.211 5.141,-7.102 2.93,-10.93 L 134.69,69.976 c -4.717,2.518 -9.32,5.212 -13.853,8.011 l 16.101,27.894 c 1.485,2.565 4.172,3.999 6.938,3.999 z"
   id="path10" /> </g> <g
   id="g12"> <path
   style="fill:#5c546a"
   d="m 255.868,79.868 c 4.422,0 8,-3.582 8,-8 V 40.064 c -2.663,-0.081 -5.317,-0.195 -8,-0.195 -2.683,0 -5.337,0.115 -8,0.195 v 31.805 c 0,4.417 3.578,7.999 8,7.999 z"
   id="path11" /> </g> <g
   id="g13"> <path
   style="fill:#5c546a"
   d="m 61.876,191.868 c 2.766,0 5.453,-1.434 6.937,-4 2.211,-3.828 0.898,-8.719 -2.93,-10.93 L 37.974,160.825 c -2.797,4.531 -5.442,9.165 -7.959,13.883 l 27.869,16.089 c 1.257,0.728 2.632,1.071 3.992,1.071 z"
   id="path12" /> </g> <g
   id="g14"> <path
   style="fill:#5c546a"
   d="M 377.049,69.975 360.938,97.88 c -2.211,3.828 -0.898,8.719 2.93,10.93 1.258,0.727 2.633,1.07 3.992,1.07 2.766,0 5.453,-1.434 6.938,-4 l 16.105,-27.895 c -4.533,-2.798 -9.137,-5.493 -13.854,-8.01 z"
   id="path13" /> </g> <g
   id="g15"> <path
   style="fill:#5c546a"
   d="m 473.768,160.826 -27.908,16.112 c -3.828,2.211 -5.141,7.102 -2.93,10.93 1.484,2.566 4.172,4 6.938,4 1.359,0 2.734,-0.344 3.992,-1.07 l 27.868,-16.089 c -2.517,-4.718 -5.163,-9.351 -7.96,-13.883 z"
   id="path14" /> </g> </g> <rect
   style="fill:#8b8996;fill-opacity:1;stroke-width:0.639671"
   id="rect17"
   width="209.63823"
   height="50.349792"
   x="151.04938"
   y="395.47476" /></g> </g>

</svg>
