<svg version="1.2" xmlns="http://www.w3.org/2000/svg" viewBox="0 0 464 464" width="464" height="464">
    <path fill="#A0DCE6" d="M148 328c-53 0-96-43-96-96 0-53 43-96 96-96 32.8 0 61.8 16.5 79.1 41.7 10.2-4.2 21.1-7.2 32.3-8.6-19.4-34.4-54.4-58.9-95.4-64v-47.2l15 15.1c3.2 3.1 8.2 3.1 11.3 0l11.4-11.3c3.1-3.2 3.1-8.2 0-11.4l-48-48c-3.2-3.1-8.2-3.1-11.4 0l-48 48c-3.1 3.2-3.1 8.2 0 11.4l11.4 11.3c3.1 3.1 8.1 3.1 11.3 0l15-15.1v47.2c-63.1 7.9-112 61.6-112 126.9 0 70.7 57.3 128 128 128q8.4 0 16.5-1.1c-5.4-9.6-9.7-20-12.5-31q-2 0.1-4 0.1z"/>

    <path fill="#A0DCE6" d="M276 232c0-11-1.4-21.7-4-31.9-11.1 0.4-21.6 2.8-31.4 6.6 2.2 8.1 3.4 16.6 3.4 25.3 0 40.5-25.1 75.2-60.6 89.3 2.8 10.5 7.4 20.3 13.5 29 46.4-19.2 79.1-64.9 79.1-118.3z"/>

    <path fill="#E86464" d="M421.5 418.9l20.2-20.2c3.1-3.1 3.1-8.1 0-11.3l-11.4-11.3c-3.1-3.1-8.1-3.1-11.3 0l-20.1 20.2-21.9-21.9c16.9-21.7 27-48.8 27-78.4 0-70.7-57.3-128-128-128q-8.4 0-16.6 1.1c-11.2 1.4-22.1 4.4-32.3 8.6-46.4 19.2-79.1 64.9-79.1 118.3 0 11 1.4 21.7 4 31.9 2.8 11 7.1 21.4 12.5 31 22 38.9 63.7 65.1 111.5 65.1 29.6 0 56.7-10.1 78.4-27l21.9 21.9-20.2 20.1c-3.1 3.2-3.1 8.2 0 11.3l11.3 11.4c3.2 3.1 8.2 3.1 11.3 0l20.2-20.2 20.1 20.2c3.2 3.1 8.2 3.1 11.3 0l11.4-11.4c3.1-3.1 3.1-8.1 0-11.3zm-145.6-26.9c-32.8 0-61.8-16.5-79.1-41.6-6-8.8-10.6-18.6-13.5-29.1-2.2-8-3.4-16.5-3.4-25.3 0-40.5 25.2-75.1 60.7-89.2 9.7-3.9 20.3-6.2 31.3-6.7q2-0.1 4-0.1c53.1 0 96 43 96 96 0 53.1-42.9 96-96 96z"/>
</svg>
