<!DOCTYPE svg PUBLIC "-//W3C//DTD SVG 1.1//EN" "http://www.w3.org/Graphics/SVG/1.1/DTD/svg11.dtd">
<!-- Uploaded to: SVG Repo, www.svgrepo.com, Transformed by: SVG Repo Mixer Tools -->
<svg version="1.1" id="Layer_1" xmlns="http://www.w3.org/2000/svg" xmlns:xlink="http://www.w3.org/1999/xlink" viewBox="0 0 512 512" xml:space="preserve" width="800px" height="800px" fill="#000000">
<g id="SVGRepo_bgCarrier" stroke-width="0"/>
<g id="SVGRepo_tracerCarrier" stroke-linecap="round" stroke-linejoin="round"/>
<g id="SVGRepo_iconCarrier"> <polygon style="fill:#D7D5D9;" points="80.917,252.703 163.97,252.703 211.115,512 80.917,512 80.917,312.321 "/> <g style="opacity:0.14;"> <polygon style="fill:#3E3B43;" points="163.97,252.703 80.917,252.703 80.917,286.34 169.846,285.021 "/> </g> <path style="fill:#D7D5D9;" d="M96.764,137.031H74.277c-32.63,0-59.327,26.697-59.327,59.327v8.072 c0,32.63,26.697,59.327,59.327,59.327h90.984c20.143,0,39.677,6.895,55.357,19.539L366.13,400.631V0L220.423,117.493 c-15.68,12.643-35.215,19.539-55.357,19.539H142.74H96.764z"/> <rect x="366.133" style="fill:#57545C;" width="61.116" height="400.635"/> <path style="fill:#D7D5D9;" d="M464.034,140.978c17.421,12.868,33.016,34.285,33.016,59.337c0,38.554-31.254,69.808-69.808,69.808 V130.507C427.243,130.507,449.859,130.507,464.034,140.978z"/> <path style="opacity:0.31;fill:#3E3B43;enable-background:new ;" d="M427.243,240.869v29.253 c38.554,0,69.808-31.254,69.808-69.808c0-4.856-0.591-9.573-1.663-14.121C488.471,217.469,460.598,240.869,427.243,240.869z"/> <polygon style="fill:#52A2E7;" points="368.168,0 280.958,70.323 280.958,330.308 368.168,400.63 "/> <path style="opacity:0.36;fill:#3E3B43;enable-background:new ;" d="M221.171,228.22c-15.68-12.643-35.215-19.539-55.357-19.539 H74.83c-24.291,0-45.286-14.801-54.434-35.825c-3.14,7.217-4.893,15.164-4.893,23.502v8.072c0,32.63,26.697,59.327,59.327,59.327 h90.984c20.143,0,39.677,6.895,55.357,19.539l145.511,117.335h61.114v-55.074h-61.114L221.171,228.22z"/> <path style="fill:#D7D5D9;" d="M187.791,387.879c0,0,66.588-13.089,73.29-72.398l-26.383-20.832 c-5.06,44.78-54.422,55.394-54.422,55.394L187.791,387.879z"/> <g style="opacity:0.31;"> <path style="fill:#3E3B43;" d="M261.063,316.096l-26.365-21.448c-1.073,9.492-4.088,17.39-8.166,23.951l27.632,22.068 C257.556,333.54,260.012,325.395,261.063,316.096z"/> </g> <g style="opacity:0.36;"> <polygon style="fill:#3E3B43;" points="172.82,301.382 80.161,407.842 80.161,512 188.52,387.728 "/> </g> </g>
</svg>