<!DOCTYPE svg PUBLIC "-//W3C//DTD SVG 1.1//EN" "http://www.w3.org/Graphics/SVG/1.1/DTD/svg11.dtd">
<!-- Uploaded to: SVG Repo, www.svgrepo.com, Transformed by: SVG Repo Mixer Tools -->
<svg height="800px" width="800px" version="1.1" id="Layer_1" xmlns="http://www.w3.org/2000/svg" xmlns:xlink="http://www.w3.org/1999/xlink" viewBox="0 0 503.322 503.322" xml:space="preserve" fill="#000000">
<g id="SVGRepo_bgCarrier" stroke-width="0"/>
<g id="SVGRepo_tracerCarrier" stroke-linecap="round" stroke-linejoin="round"/>
<g id="SVGRepo_iconCarrier"> <path style="fill:#546080;" d="M295.051,34.712V17.356C295.051,7.81,287.241,0,277.695,0h-52.068 c-9.546,0-17.356,7.81-17.356,17.356v17.356h-34.712c-5.207,0-8.678,3.471-8.678,8.678v60.746c0,5.207,3.471,8.678,8.678,8.678 h156.203c5.207,0,8.678-3.471,8.678-8.678V43.39c0-5.207-3.471-8.678-8.678-8.678H295.051z"/> <path style="fill:#F0EDE0;" d="M338.441,60.746v43.39c0,5.207-3.471,8.678-8.678,8.678H173.559c-5.207,0-8.678-4.339-8.678-8.678 v-43.39h-52.068c-19.092,0-34.712,15.62-34.712,34.712V468.61c0,19.092,15.62,34.712,34.712,34.712h277.695 c19.092,0,34.712-15.62,34.712-34.712V95.458c0-19.092-15.62-34.712-34.712-34.712H338.441z"/> <g> <path style="fill:#D4D0BA;" d="M234.305,338.441H130.169c-5.207,0-8.678-3.471-8.678-8.678c0-5.207,3.471-8.678,8.678-8.678 h104.136c5.207,0,8.678,3.471,8.678,8.678C242.983,334.969,239.512,338.441,234.305,338.441"/> <path style="fill:#D4D0BA;" d="M338.441,338.441h-69.424c-5.207,0-8.678-3.471-8.678-8.678c0-5.207,3.471-8.678,8.678-8.678h69.424 c5.207,0,8.678,3.471,8.678,8.678C347.119,334.969,343.647,338.441,338.441,338.441"/> <path style="fill:#D4D0BA;" d="M312.407,407.864H208.271c-5.207,0-8.678-3.471-8.678-8.678c0-5.207,3.471-8.678,8.678-8.678 h104.136c5.207,0,8.678,3.471,8.678,8.678C321.085,404.393,317.614,407.864,312.407,407.864"/> <path style="fill:#D4D0BA;" d="M182.237,199.593h-52.068c-5.207,0-8.678-3.471-8.678-8.678s3.471-8.678,8.678-8.678h52.068 c5.207,0,8.678,3.471,8.678,8.678S187.444,199.593,182.237,199.593"/> <path style="fill:#D4D0BA;" d="M260.339,199.593h-43.39c-5.207,0-8.678-3.471-8.678-8.678s3.471-8.678,8.678-8.678h43.39 c5.207,0,8.678,3.471,8.678,8.678S265.546,199.593,260.339,199.593"/> <path style="fill:#D4D0BA;" d="M373.153,199.593h-78.102c-5.207,0-8.678-3.471-8.678-8.678s3.471-8.678,8.678-8.678h78.102 c5.207,0,8.678,3.471,8.678,8.678S378.359,199.593,373.153,199.593"/> <path style="fill:#D4D0BA;" d="M216.949,269.017h-86.78c-5.207,0-8.678-3.471-8.678-8.678s3.471-8.678,8.678-8.678h86.78 c5.207,0,8.678,3.471,8.678,8.678S222.156,269.017,216.949,269.017"/> <path style="fill:#D4D0BA;" d="M173.559,407.864h-43.39c-5.207,0-8.678-3.471-8.678-8.678c0-5.207,3.471-8.678,8.678-8.678h43.39 c5.207,0,8.678,3.471,8.678,8.678C182.237,404.393,178.766,407.864,173.559,407.864"/> <path style="fill:#D4D0BA;" d="M355.797,269.017H251.661c-5.207,0-8.678-3.471-8.678-8.678s3.471-8.678,8.678-8.678h104.136 c5.207,0,8.678,3.471,8.678,8.678S361.003,269.017,355.797,269.017"/> </g> </g>
</svg>