<!DOCTYPE svg PUBLIC "-//W3C//DTD SVG 1.1//EN" "http://www.w3.org/Graphics/SVG/1.1/DTD/svg11.dtd">
<!-- Uploaded to: SVG Repo, www.svgrepo.com, Transformed by: SVG Repo Mixer Tools -->
<svg height="800px" width="800px" version="1.1" id="Layer_1" xmlns="http://www.w3.org/2000/svg" xmlns:xlink="http://www.w3.org/1999/xlink" viewBox="0 0 511.984 511.984" xml:space="preserve" fill="#000000">
<g id="SVGRepo_bgCarrier" stroke-width="0"/>
<g id="SVGRepo_tracerCarrier" stroke-linecap="round" stroke-linejoin="round"/>
<g id="SVGRepo_iconCarrier"> <path style="fill:#ED5564;" d="M306.35,21.402c-11.375,0-21.656,4.672-29.031,12.203c-7.375-7.531-17.655-12.203-29.03-12.203 c-22.437,0-40.624,18.187-40.624,40.639c0,46.436,69.653,87.075,69.653,87.075s69.67-40.639,69.67-87.075 C346.989,39.589,328.786,21.402,306.35,21.402z"/> <path style="opacity:0.2;fill:#FFFFFF;enable-background:new ;" d="M306.35,21.402c-3.688,0-7.266,0.5-10.672,1.422 c17.265,4.688,29.968,20.468,29.968,39.217c0,34.967-39.468,66.623-58.982,80.154c6.405,4.437,10.655,6.921,10.655,6.921 s69.67-40.639,69.67-87.075C346.989,39.589,328.786,21.402,306.35,21.402z"/> <path style="fill:#343A42;" d="M380.019,202.599c-123.262,0.328-68.575,142.987-110.638,178.361c0,0,22.656,20.968,110.638,20.968 l0,0l0,0c87.981,0,110.652-20.968,110.652-20.968C448.61,345.587,503.28,202.928,380.019,202.599z"/> <path style="fill:#EC87C0;" d="M490.312,422.303l-0.859-0.25c-14.374-3.906-24.905-7.625-31.249-10.062 c-22.483-8.656-28.343-14.905-29.826-17.843c-0.062-0.094-0.094-0.219-0.141-0.312l-0.203-27.499l-96.029,1.094l-0.188,26.405 c-0.047,0.094-0.094,0.219-0.141,0.312c-1.5,2.938-7.343,9.187-29.826,17.843c-6.344,2.438-16.891,6.156-31.125,10.031l-0.984,0.281 c-12.952,4.312-21.67,16.469-21.67,30.187v38.093h263.913V452.49C511.983,438.771,503.28,426.615,490.312,422.303z"/> <path style="fill:#EAC6BB;" d="M454.798,316.119c0,48.561-46.311,95.309-74.778,95.309c-28.452,0-74.778-46.748-74.778-95.309 c0-48.6,33.482-80.662,74.778-80.662S454.798,267.519,454.798,316.119z"/> <path style="fill:#5D9CEC;" d="M293.694,407.771l-1.016-0.312c-17.438-4.718-30.218-9.218-37.905-12.187 c-27.249-10.468-34.358-18.03-36.155-21.624c-0.078-0.125-0.125-0.25-0.188-0.375l-0.234-33.343l-116.434,1.344l-0.219,31.999 c-0.062,0.125-0.109,0.25-0.172,0.375c-1.812,3.594-8.906,11.156-36.17,21.655c-7.672,2.938-20.468,7.438-37.733,12.124 l-1.188,0.344C10.562,413.02,0,427.77,0,444.395v46.186h319.974v-46.186C319.974,427.771,309.429,413.021,293.694,407.771z"/> <path style="fill:#EAC6BB;" d="M250.649,279.026c0,58.936-56.154,115.559-90.669,115.559c-34.499,0-90.653-56.623-90.653-115.559 c0-58.896,40.592-97.77,90.653-97.77C210.056,181.256,250.649,220.13,250.649,279.026z"/> <path style="fill:#A85D5D;" d="M218.415,170.6c-15.437-13.969-67.123-31.124-118.668,0c-26.108,15.749-45.108,85.325-45.108,85.325 s50.92,28.851,117.215-2.328c39.67-18.671,38.78-8.891,50.108,8.109c6.734,10.077,28.687,17.319,28.687,17.319 S267.742,215.255,218.415,170.6z"/> <path style="fill:#434A54;" d="M396.003,203.536l-5.047,52.389c0,0,34.844,31.257,76.186,32.694l0.188-0.031 C461.829,248.379,449.141,209.943,396.003,203.536z"/> <path style="fill:#656D78;" d="M432.299,216.083c-12.405-8.39-29.233-13.421-52.279-13.483 c-77.06,0.203-84.575,56.029-89.653,106.488C364.145,305.056,432.283,216.083,432.299,216.083z"/> </g>
</svg>