<!DOCTYPE svg PUBLIC "-//W3C//DTD SVG 1.1//EN" "http://www.w3.org/Graphics/SVG/1.1/DTD/svg11.dtd">
<!-- Uploaded to: SVG Repo, www.svgrepo.com, Transformed by: SVG Repo Mixer Tools -->
<svg height="800px" width="800px" version="1.1" id="Layer_1" xmlns="http://www.w3.org/2000/svg" xmlns:xlink="http://www.w3.org/1999/xlink" viewBox="0 0 511.998 511.998" xml:space="preserve" fill="#000000">
<g id="SVGRepo_bgCarrier" stroke-width="0"/>
<g id="SVGRepo_tracerCarrier" stroke-linecap="round" stroke-linejoin="round"/>
<g id="SVGRepo_iconCarrier"> <path style="fill:#57e389;" d="M487.585,28.605l-103.587-0.003c-13.482,0-24.415,10.931-24.415,24.415 c0,13.485,10.931,24.415,24.415,24.415l44.645,0.002l-113.7,113.7l-51.791-51.793c-4.579-4.579-10.788-7.152-17.265-7.152 c-6.477,0-12.686,2.573-17.263,7.152L55.982,311.983c-9.535,9.533-9.535,24.993,0,34.528c4.767,4.769,11.014,7.15,17.263,7.15 s12.497-2.381,17.263-7.15l155.378-155.378l51.791,51.791c4.579,4.579,10.788,7.154,17.263,7.154c6.477,0,12.686-2.575,17.263-7.15 l130.963-130.961v44.639c0,13.484,10.931,24.415,24.415,24.415c13.484,0,24.415-10.931,24.415-24.415V53.02 C512,39.535,501.069,28.605,487.585,28.605z"/> <path style="fill:#62a0ea;" d="M463.888,402.49H97.661V36.263c0-13.482-10.931-24.415-24.415-24.415h-48.83 C10.931,11.848,0,22.781,0,36.263c0,13.484,10.931,24.415,24.415,24.415H48.83v48.83H24.415C10.931,109.508,0,120.441,0,133.924 c0,13.484,10.931,24.415,24.415,24.415H48.83v48.83H24.415C10.931,207.169,0,218.102,0,231.584 c0,13.485,10.931,24.415,24.415,24.415H48.83v48.83H24.415C10.931,304.829,0,315.763,0,329.245 c0,13.485,10.931,24.415,24.415,24.415H48.83v48.83H24.415C10.931,402.49,0,413.423,0,426.905c0,13.485,10.931,24.415,24.415,24.415 H48.83v24.415c0,13.485,10.931,24.415,24.415,24.415s24.415-10.93,24.415-24.415V451.32h48.83v24.415 c0,13.485,10.931,24.415,24.415,24.415s24.415-10.93,24.415-24.415V451.32h48.83v24.415c0,13.485,10.931,24.415,24.415,24.415 c13.484,0,24.415-10.93,24.415-24.415V451.32h48.83v24.415c0,13.485,10.931,24.415,24.415,24.415s24.415-10.93,24.415-24.415V451.32 h48.83v24.415c0,13.485,10.931,24.415,24.415,24.415c13.484,0,24.415-10.93,24.415-24.415v-48.83 C488.303,413.423,477.371,402.49,463.888,402.49z"/> <path style="fill:#33d17a;" d="M487.585,28.605l-103.587-0.003c-13.482,0-24.415,10.931-24.415,24.415 c0,13.485,10.931,24.415,24.415,24.415l44.645,0.002l-113.7,113.7l-34.528-34.529v69.057l17.263,17.263 c4.579,4.579,10.788,7.154,17.263,7.154c6.477,0,12.686-2.575,17.263-7.15l130.963-130.961v44.639 c0,13.484,10.931,24.415,24.415,24.415c13.484,0,24.415-10.931,24.415-24.415V53.02C512,39.535,501.069,28.605,487.585,28.605z"/> <path style="fill:#3584e4;" d="M463.888,402.49H268.566v97.66c13.484,0,24.415-10.93,24.415-24.415V451.32h48.83v24.415 c0,13.485,10.931,24.415,24.415,24.415s24.415-10.93,24.415-24.415V451.32h48.83v24.415c0,13.485,10.931,24.415,24.415,24.415 c13.484,0,24.415-10.93,24.415-24.415v-48.83C488.303,413.423,477.371,402.49,463.888,402.49z"/> </g>
</svg>