<!DOCTYPE svg PUBLIC "-//W3C//DTD SVG 1.1//EN" "http://www.w3.org/Graphics/SVG/1.1/DTD/svg11.dtd">
<!-- Uploaded to: SVG Repo, www.svgrepo.com, Transformed by: SVG Repo Mixer Tools -->
<svg version="1.1" id="Layer_1" xmlns="http://www.w3.org/2000/svg" xmlns:xlink="http://www.w3.org/1999/xlink" viewBox="0 0 512 512" xml:space="preserve" width="800px" height="800px" fill="#000000">
<g id="SVGRepo_bgCarrier" stroke-width="0"/>
<g id="SVGRepo_tracerCarrier" stroke-linecap="round" stroke-linejoin="round"/>
<g id="SVGRepo_iconCarrier"> <rect x="2.812" style="fill:#F8F8F9;" width="384" height="512"/> <rect x="182.016" style="fill:#EDEDED;" width="204.8" height="512"/> <g> <rect x="66.816" y="236.8" style="fill:#D8D8DA;" width="230.4" height="38.4"/> <rect x="66.816" y="364.8" style="fill:#D8D8DA;" width="256" height="38.4"/> <rect x="66.816" y="108.8" style="fill:#D8D8DA;" width="230.4" height="38.4"/> </g> <g> <rect x="182.016" y="236.8" style="fill:#C6C5CA;" width="126.72" height="38.4"/> <rect x="182.016" y="364.8" style="fill:#C6C5CA;" width="140.8" height="38.4"/> <rect x="182.016" y="108.8" style="fill:#C6C5CA;" width="126.72" height="38.4"/> <rect x="265.216" y="172.8" style="fill:#C6C5CA;" width="76.8" height="38.4"/> </g> <path style="fill:#797781;" d="M509.188,332.024l-87.122-87.121c10.065-15.18,15.946-33.364,15.946-52.902c0-52.934-43.066-96-96-96 s-96,43.066-96,96s43.066,96,96,96c19.538,0,37.722-5.88,52.902-15.945l87.122,87.121L509.188,332.024z M284.412,192 c0-31.761,25.839-57.6,57.6-57.6s57.6,25.839,57.6,57.6s-25.839,57.6-57.6,57.6S284.412,223.762,284.412,192z"/> </g>
</svg>