<!DOCTYPE svg PUBLIC "-//W3C//DTD SVG 1.1//EN" "http://www.w3.org/Graphics/SVG/1.1/DTD/svg11.dtd">
<!-- Uploaded to: SVG Repo, www.svgrepo.com, Transformed by: SVG Repo Mixer Tools -->
<svg height="800px" width="800px" version="1.1" id="Layer_1" xmlns="http://www.w3.org/2000/svg" xmlns:xlink="http://www.w3.org/1999/xlink" viewBox="0 0 511.981 511.981" xml:space="preserve" fill="#000000">
<g id="SVGRepo_bgCarrier" stroke-width="0"/>
<g id="SVGRepo_tracerCarrier" stroke-linecap="round" stroke-linejoin="round"/>
<g id="SVGRepo_iconCarrier"> <path style="fill:#ED5564;" d="M306.35,21.358c-11.375,0-21.656,4.672-29.031,12.203c-7.375-7.531-17.647-12.203-29.022-12.203 c-22.445,0-40.639,18.202-40.639,40.639c0,46.436,69.661,87.075,69.661,87.075s69.67-40.639,69.67-87.075 C346.989,39.56,328.786,21.358,306.35,21.358z"/> <path style="opacity:0.2;fill:#FFFFFF;enable-background:new ;" d="M306.35,21.358c-3.703,0-7.266,0.5-10.672,1.422 c17.265,4.688,29.968,20.468,29.968,39.217c0,34.967-39.468,66.638-58.99,80.154c6.397,4.437,10.663,6.921,10.663,6.921 s69.67-40.639,69.67-87.075C346.989,39.56,328.786,21.358,306.35,21.358z"/> <path style="fill:#343A42;" d="M380.019,202.555c-123.254,0.328-68.591,142.995-110.646,178.354c0,0,22.664,20.983,110.646,20.983 l0,0l0,0c87.997,0,110.652-20.983,110.652-20.983C448.61,345.551,503.28,202.884,380.019,202.555z"/> <path style="fill:#EC87C0;" d="M490.297,422.251l-0.844-0.25c-14.374-3.906-24.905-7.609-31.249-10.062 c-22.468-8.641-28.343-14.89-29.826-17.827c-0.047-0.109-0.109-0.219-0.141-0.328l-0.219-27.499l-96.014,1.094l-0.188,26.405 c-0.047,0.109-0.078,0.219-0.141,0.328c-1.5,2.938-7.343,9.187-29.826,17.843c-6.328,2.438-16.891,6.141-31.133,10.016l-0.977,0.281 c-12.96,4.328-21.678,16.484-21.678,30.187v38.124h263.92v-38.124C511.983,438.735,503.264,426.579,490.297,422.251z"/> <path style="fill:#EAC6BB;" d="M454.798,316.067c0,48.592-46.311,95.309-74.778,95.309s-74.778-46.717-74.778-95.309 s33.482-80.654,74.778-80.654C421.331,235.413,454.798,267.475,454.798,316.067z"/> <path style="fill:#434A54;" d="M396.003,203.492l-5.047,52.389c0,0,34.844,31.265,76.186,32.702l0.188-0.031 C461.829,248.335,449.141,209.899,396.003,203.492z"/> <path style="fill:#656D78;" d="M432.299,216.039c-12.405-8.39-29.233-13.421-52.279-13.483 c-77.06,0.203-84.56,56.045-89.653,106.512C364.145,305.005,432.283,216.039,432.299,216.039z"/> <path style="fill:#ED5564;" d="M306.35,21.436c-11.375,0-21.656,4.672-29.031,12.203c-7.375-7.531-17.655-12.203-29.022-12.203 c-22.445,0-40.639,18.187-40.639,40.639c0,46.436,69.661,87.075,69.661,87.075s69.67-40.639,69.67-87.075 C346.989,39.623,328.786,21.436,306.35,21.436z"/> <path style="opacity:0.2;fill:#FFFFFF;enable-background:new ;" d="M306.35,21.436c-3.703,0-7.266,0.5-10.672,1.422 c17.265,4.688,29.968,20.468,29.968,39.217c0,34.952-39.468,66.623-58.99,80.154c6.397,4.437,10.663,6.921,10.663,6.921 s69.67-40.639,69.67-87.075C346.989,39.623,328.786,21.436,306.35,21.436z"/> <path style="fill:#E2A437;" d="M267.43,410.188H52.546c0,0-55.998-260.897,107.442-260.897S267.43,410.188,267.43,410.188z"/> <path style="fill:#AC92EB;" d="M293.71,407.813l-1.031-0.312c-17.438-4.718-30.21-9.218-37.905-12.187 c-27.249-10.483-34.358-18.046-36.163-21.624c-0.062-0.125-0.117-0.266-0.172-0.391l-0.25-33.343l-116.418,1.328l-0.227,32.015 c-0.055,0.125-0.109,0.266-0.172,0.391c-1.812,3.578-8.906,11.141-36.163,21.64c-7.688,2.953-20.484,7.453-37.741,12.14 l-1.188,0.344C10.57,413.064,0,427.798,0,444.423v46.201h319.974v-46.201C319.974,427.798,309.429,413.063,293.71,407.813z"/> <path style="fill:#EAC6BB;" d="M250.657,279.068c0,58.904-56.162,115.559-90.669,115.559s-90.669-56.654-90.669-115.559 s40.592-97.778,90.669-97.778S250.657,220.164,250.657,279.068z"/> <path style="fill:#F6BB42;" d="M159.988,149.291c-4.281,0-8.406,0.188-12.39,0.531l-7.688,33.639l34.397,31.468l100.715,65.061 C268.633,214.679,241.813,149.291,159.988,149.291z"/> <path style="fill:#FFCE54;" d="M43.882,294.052c63.982-10.577,170.705-97.746,192.048-115.621 c-17.484-17.859-41.967-29.14-75.943-29.14C72.28,149.291,47.765,224.429,43.882,294.052z"/> </g>
</svg>