<?xml version="1.0" encoding="UTF-8" standalone="no"?>
<!-- Uploaded to: SVG Repo, www.svgrepo.com, Transformed by: SVG Repo Mixer Tools -->

<svg
   width="256"
   height="256"
   viewBox="0 0 1024 1024"
   class="icon"
   version="1.1"
   fill="#000000"
   id="svg3"
   xmlns="http://www.w3.org/2000/svg"
   xmlns:svg="http://www.w3.org/2000/svg">
  <defs
     id="defs3" />
  <g
     id="SVGRepo_iconCarrier">
    <path
       d="M 327.91858,12.358755 883.2879,65.171 a 43.932636,43.932636 0 0 1 41.9231,45.3155 l -79.21837,833.05399 a 43.932636,43.932636 0 0 1 -47.20009,39.64234 L 243.42319,930.37058 a 43.235292,43.235292 0 0 1 -41.659,-48.0923 L 280.98256,49.224292 a 43.235292,43.235292 0 0 1 46.93602,-36.865537 z"
       fill="#dc8add"
       id="path2-3"
       style="fill:#8ab1dd;fill-opacity:1" />
    <path
       d="m 184.40753,102.02134 h 557.87474 a 43.932636,43.932636 0 0 1 46.02466,41.14326 v 836.81211 a 43.932636,43.932636 0 0 1 -43.23529,43.93259 H 187.1969 A 43.235292,43.235292 0 0 1 141.17224,979.97671 V 143.1646 a 43.235292,43.235292 0 0 1 43.23529,-41.14326 z"
       fill="#dc8add"
       id="path2" />
    <path
       d="m 464.73958,695.46059 h -7.67077 c -9.06547,-6.27609 -30.68312,-20.9203 -44.62998,-32.07779 -52.30076,-41.14327 -80.1945,-69.73434 -85.0759,-92.74668 a 85.075897,85.075897 0 0 1 -4.18406,-25.10436 87.167928,87.167928 0 0 1 27.19639,-66.24763 73.918403,73.918403 0 0 1 52.30076,-22.31499 77.40512,77.40512 0 0 1 62.06356,30.68311 76.707776,76.707776 0 0 1 61.36622,-32.07779 80.891837,80.891837 0 0 1 76.01044,82.28652 87.167928,87.167928 0 0 1 -3.48672,23.70968 c -4.18406,20.9203 -32.0778,52.9981 -82.28652,94.14136 a 522.31022,522.31022 0 0 1 -48.1167,36.26186"
       fill="#e6e9ed"
       id="path3" />
  </g>
</svg>
