<?xml version="1.0" encoding="UTF-8" standalone="no"?>
<!-- Created with Inkscape (http://www.inkscape.org/) -->

<svg
   width="1920"
   height="1080"
   viewBox="0 0 1920 1080"
   version="1.1"
   id="svg1"
   xml:space="preserve"
   xmlns="http://www.w3.org/2000/svg"
   xmlns:svg="http://www.w3.org/2000/svg"><defs
     id="defs1" /><g
     id="layer1"
     transform="matrix(1.2949716,0,0,1.2949716,-152.23295,-159.28467)"><g
       id="g1"
       transform="matrix(0.39369137,0,0,0.39369137,161.74561,327.15686)"><path
         opacity="0.5"
         d="m 450.04517,125.38746 c 188.36372,-195.704623 418.60465,-51.340605 418.60465,152.22432 0,203.56326 -168.25395,312.04047 -291.42,409.13582 -43.46372,34.26279 -85.32419,66.52046 -127.18465,66.52046"
         stroke="#d583ec"
         stroke-width="62.7907"
         stroke-linecap="round"
         id="path2"
         style="fill:none" /><path
         d="m 629.91402,420.19033 c 188.36539,-195.70462 418.60468,-51.3406 418.60468,152.22432 0,203.56326 -168.25524,312.04047 -291.42129,409.13582 -43.46246,34.26283 -85.32292,66.52043 -127.18339,66.52043"
         stroke="#83bfec"
         stroke-width="62.7907"
         stroke-linecap="round"
         id="path1-9"
         style="fill:none" /><path
         opacity="0.5"
         d="M 629.91402,420.19033 C 441.5503,224.48571 211.30937,368.84973 211.30937,572.41465 c 0,203.56326 168.25395,312.04047 291.42,409.13582 43.46372,34.26283 85.32419,66.52043 127.18465,66.52043"
         stroke="#83bfec"
         stroke-width="62.7907"
         stroke-linecap="round"
         id="path2-4"
         style="fill:none" /><path
         d="M 450.04518,125.38746 C 261.67979,-70.317163 31.44053,74.046855 31.44053,277.61178 c 0,203.56326 168.25521,312.04047 291.42126,409.13582 43.46246,34.26279 85.32292,66.52046 127.18339,66.52046"
         stroke="#d583ec"
         stroke-width="62.7907"
         stroke-linecap="round"
         id="path1"
         style="fill:none" /></g><text
       xml:space="preserve"
       style="font-size:192px;font-family:Cantarell;-inkscape-font-specification:Cantarell;text-align:start;writing-mode:lr-tb;direction:ltr;text-anchor:start;fill:#d583ec;fill-opacity:1;stroke-width:0.95;stroke-linecap:round;stroke-linejoin:round"
       x="612.32837"
       y="585.79199"
       id="text1"><tspan
         id="tspan1"
         x="612.32837"
         y="585.79199"
         style="font-size:192px;fill:#d583ec;fill-opacity:1">Loverquest</tspan></text></g><style
     id="style1" /></svg>
