<!DOCTYPE svg PUBLIC "-//W3C//DTD SVG 1.1//EN" "http://www.w3.org/Graphics/SVG/1.1/DTD/svg11.dtd">
<!-- Uploaded to: SVG Repo, www.svgrepo.com, Transformed by: SVG Repo Mixer Tools -->
<svg version="1.1" id="Layer_1" xmlns="http://www.w3.org/2000/svg" xmlns:xlink="http://www.w3.org/1999/xlink" viewBox="0 0 511.982 511.982" xml:space="preserve" width="800px" height="800px" fill="#000000">
<g id="SVGRepo_bgCarrier" stroke-width="0"/>
<g id="SVGRepo_tracerCarrier" stroke-linecap="round" stroke-linejoin="round"/>
<g id="SVGRepo_iconCarrier"> <path style="fill:#A85D5D;" d="M400.611,213.094c-16.562-36.811-75.028-63.998-144.62-63.998 c-69.576,0-128.042,27.187-144.62,63.998H42.67v171.987h426.658V213.094H400.611z"/> <g> <rect x="21.265" y="404.484" style="fill:#965353;" width="106.66" height="85.87"/> <rect x="383.991" y="404.794" style="fill:#965353;" width="106.67" height="85.9"/> </g> <path style="fill:#ED5564;" d="M304.428,21.288c-18.969,0-36.124,7.796-48.429,20.358c-12.312-12.562-29.468-20.358-48.443-20.358 c-37.452,0-67.811,30.358-67.811,67.81c0,77.513,116.254,145.323,116.254,145.323s116.254-67.81,116.254-145.323 C372.253,51.646,341.894,21.288,304.428,21.288z"/> <g style="opacity:0.2;"> <path style="fill:#FFFFFF;" d="M304.428,21.288c-3.625,0-7.188,0.281-10.656,0.844c32.374,5.109,57.154,33.14,57.154,66.966 c0,63.029-76.873,119.637-105.598,138.589c6.609,4.359,10.671,6.734,10.671,6.734s116.254-67.81,116.254-145.323 C372.253,51.646,341.894,21.288,304.428,21.288z"/> </g> <g> <path style="fill:#E6E9ED;" d="M234.664,353.049c0,5.875-4.773,10.656-10.664,10.656H95.996c-5.89,0-10.664-4.781-10.664-10.656 v-65.31c0-5.875,4.773-10.656,10.664-10.656H224c5.89,0,10.664,4.781,10.664,10.656V353.049z"/> <path style="fill:#E6E9ED;" d="M426.658,353.049c0,5.875-4.781,10.656-10.672,10.656H287.99c-5.891,0-10.656-4.781-10.656-10.656 v-65.31c0-5.875,4.766-10.656,10.656-10.656h127.996c5.891,0,10.672,4.781,10.672,10.656V353.049z"/> <path style="fill:#E6E9ED;" d="M511.982,437.079c0,5.906-4.781,10.655-10.656,10.655H10.671C4.781,447.734,0,442.985,0,437.079 V330.426c0-5.905,4.781-10.687,10.671-10.687h490.655c5.875,0,10.656,4.781,10.656,10.687V437.079z"/> </g> <path style="fill:#FC6E51;" d="M501.326,319.738H10.671C4.781,319.738,0,324.52,0,330.426v53.312h511.982v-53.312 C511.982,324.52,507.201,319.738,501.326,319.738z"/> <g style="opacity:0.2;"> <path style="fill:#FFFFFF;" d="M501.326,319.738H10.671C4.781,319.738,0,324.52,0,330.426v21.312 c0-5.874,4.781-10.655,10.671-10.655h490.655c5.875,0,10.656,4.781,10.656,10.655v-21.312 C511.982,324.52,507.201,319.738,501.326,319.738z"/> </g> </g>
</svg>