<?xml version="1.0" encoding="UTF-8" standalone="no"?>
<!-- Uploaded to: SVG Repo, www.svgrepo.com, Transformed by: SVG Repo Mixer Tools -->

<svg
   height="800.01172"
   width="623.64331"
   version="1.1"
   id="Layer_1"
   viewBox="0 0 399.11613 511.9875"
   xml:space="preserve"
   fill="#000000"
   stroke="#000000"
   stroke-width="0.00511982"
   xmlns="http://www.w3.org/2000/svg"
   xmlns:svg="http://www.w3.org/2000/svg"><defs
   id="defs5" />





<g
   id="SVGRepo_iconCarrier"
   transform="translate(-56.432438,0.00255991)"> <path
   style="fill:#b3b3b3"
   d="M 255.99,0 C 197.133,0 149.416,47.717 149.416,106.574 V 287.865 H 362.565 V 106.574 C 362.565,47.717 314.847,0 255.99,0 Z m 85.263,266.538 H 170.727 V 106.574 c 0,-22.78 8.875,-44.186 24.984,-60.295 16.093,-16.093 37.499,-24.968 60.279,-24.968 22.78,0 44.187,8.875 60.279,24.968 16.108,16.109 24.983,37.515 24.983,60.295 v 159.964 z"
   id="path1" /> <path
   style="fill:#fc6e51"
   d="m 339.143,146.12 c -32.576,0 -62.029,13.374 -83.153,34.952 -21.124,-21.578 -50.576,-34.952 -83.153,-34.952 -64.279,0 -116.402,52.107 -116.402,116.402 -0.001,133.042 199.555,249.46 199.555,249.46 0,0 199.556,-116.418 199.556,-249.46 0,-64.295 -52.108,-116.402 -116.403,-116.402 z"
   id="path2" /> <g
   style="opacity:0.2"
   id="g3"> <path
   style="fill:#ffffff"
   d="m 339.143,146.12 c -3.594,0 -7.156,0.156 -10.656,0.484 59.295,5.391 105.747,55.217 105.747,115.918 0,114.402 -147.558,216.508 -188.9,242.866 6.734,4.297 10.656,6.594 10.656,6.594 0,0 199.556,-116.418 199.556,-249.46 0,-64.295 -52.108,-116.402 -116.403,-116.402 z"
   id="path3" /> </g> <path
   style="fill:#333333;stroke-width:0.00782562"
   d="m 223.41549,367.63395 v -44.54033 l -4.08414,-4.60993 c -7.85797,-8.93099 -12.20348,-20.3947 -12.20348,-32.31236 0,-26.93819 21.92317,-48.86291 48.86136,-48.86291 26.93817,0 48.86289,21.92472 48.86289,48.86291 0,11.91766 -4.34704,23.38137 -12.20349,32.31236 l -4.08414,4.60993 v 44.54033 z"
   id="path4" /> <path
   style="fill:#b3b3b3;stroke-width:0.00782562"
   d="m 255.99076,221.02156 c -35.98992,0 -65.15053,29.15907 -65.15053,65.149 0,16.52607 6.16136,31.5955 16.28764,43.08366 v 54.66659 h 97.72426 v -54.66659 c 10.12627,-11.48816 16.28763,-26.55605 16.28763,-43.08366 10e-4,-35.98839 -29.15907,-65.149 -65.149,-65.149 z m 24.42993,86.69159 -8.14229,9.21682 v 12.32271 22.08981 h -32.57528 v -22.08981 -12.32271 l -8.1438,-9.21682 c -5.25343,-5.97029 -8.14382,-13.61277 -8.14382,-21.54259 0,-17.95981 14.61545,-32.57526 32.57526,-32.57526 17.95981,0 32.57527,14.61545 32.57527,32.57526 0,7.92982 -2.89038,15.5723 -8.14534,21.54259 z"
   id="path5" /> </g>

</svg>
